<svg width="233" height="64" viewBox="0 0 233 64" fill="none" xmlns="http://www.w3.org/2000/svg">
	<path d="M12.12 36.488H10.056V41H8.952V36.488H0.768V35.12L8.52 24.344H10.056V35.48H12.12V36.488ZM8.952 35.48V25.664H8.808L1.848 35.336V35.48H8.952ZM29.9094 41H28.4214L21.7014 32.672H20.1894V41H19.0614V24.344H20.1894V31.664H21.7014L28.2534 24.344H29.6934L22.6134 32.144L29.9094 41ZM41.0329 39.92V41H31.6249V24.344H40.2409V25.376H32.7529V31.736H39.7609V32.744H32.7529V39.92H41.0329ZM46.9663 33.488L41.1823 24.344H42.4783L47.5183 32.384H47.6623L52.6063 24.344H53.9023L48.0943 33.488V41H46.9663V33.488ZM59.6064 24.344H64.6944L67.9584 34.184H68.1024L71.4624 24.344H76.4064V41H73.3104V27.416H73.1664L69.5904 37.64H66.3744L62.8224 27.416H62.6784V41H59.6064V24.344ZM89.6846 38.24V41H79.3886V24.344H89.2526V27.08H82.5326V31.112H88.7726V33.728H82.5326V38.24H89.6846ZM102.514 27.104H97.9783V41H94.8343V27.104H90.3223V24.344H102.514V27.104ZM113.386 41L109.234 34.712H109.114H107.074V41H103.93V24.344H109.114C110.234 24.344 111.202 24.44 112.018 24.632C112.834 24.808 113.498 25.104 114.01 25.52C114.522 25.92 114.898 26.448 115.138 27.104C115.394 27.76 115.522 28.56 115.522 29.504C115.522 30.912 115.258 32 114.73 32.768C114.218 33.52 113.41 34.048 112.306 34.352L117.082 41H113.386ZM108.682 32.312C109.354 32.312 109.922 32.28 110.386 32.216C110.85 32.136 111.226 32 111.514 31.808C111.818 31.6 112.034 31.312 112.162 30.944C112.306 30.576 112.378 30.096 112.378 29.504C112.378 28.96 112.306 28.52 112.162 28.184C112.034 27.848 111.818 27.584 111.514 27.392C111.226 27.2 110.85 27.072 110.386 27.008C109.922 26.928 109.354 26.888 108.682 26.888H107.074V32.312H108.682ZM118.274 24.344H121.418V41H118.274V24.344ZM131.832 41.24C130.632 41.24 129.544 41.12 128.568 40.88C127.608 40.64 126.784 40.208 126.096 39.584C125.408 38.944 124.872 38.072 124.488 36.968C124.12 35.848 123.936 34.416 123.936 32.672C123.936 31.072 124.12 29.728 124.488 28.64C124.872 27.536 125.408 26.648 126.096 25.976C126.784 25.304 127.616 24.824 128.592 24.536C129.568 24.248 130.664 24.104 131.88 24.104C132.68 24.104 133.384 24.152 133.992 24.248C134.616 24.328 135.184 24.456 135.696 24.632V27.392C135.184 27.216 134.632 27.08 134.04 26.984C133.448 26.872 132.792 26.816 132.072 26.816C131.256 26.816 130.544 26.912 129.936 27.104C129.344 27.296 128.848 27.624 128.448 28.088C128.064 28.536 127.776 29.136 127.584 29.888C127.392 30.624 127.296 31.544 127.296 32.648C127.296 33.816 127.384 34.776 127.56 35.528C127.752 36.28 128.04 36.88 128.424 37.328C128.808 37.76 129.288 38.064 129.864 38.24C130.456 38.4 131.152 38.48 131.952 38.48C132.688 38.48 133.368 38.432 133.992 38.336C134.616 38.224 135.248 38.056 135.888 37.832V40.544C135.392 40.736 134.792 40.896 134.088 41.024C133.4 41.168 132.648 41.24 131.832 41.24ZM142.118 41.24C141.622 41.24 141.134 41.224 140.654 41.192C140.174 41.16 139.718 41.112 139.286 41.048C138.854 40.984 138.462 40.92 138.11 40.856C137.758 40.792 137.462 40.72 137.222 40.64V37.832C137.478 37.928 137.79 38.016 138.158 38.096C138.526 38.176 138.918 38.248 139.334 38.312C139.766 38.376 140.206 38.432 140.654 38.48C141.118 38.512 141.574 38.528 142.022 38.528C143.174 38.528 143.998 38.368 144.494 38.048C144.99 37.712 145.238 37.12 145.238 36.272C145.238 35.888 145.19 35.568 145.094 35.312C145.014 35.04 144.854 34.808 144.614 34.616C144.374 34.408 144.038 34.232 143.606 34.088C143.19 33.928 142.638 33.76 141.95 33.584C141.07 33.376 140.334 33.152 139.742 32.912C139.166 32.672 138.694 32.376 138.326 32.024C137.974 31.656 137.718 31.224 137.558 30.728C137.414 30.216 137.342 29.592 137.342 28.856C137.342 27.16 137.838 25.944 138.83 25.208C139.838 24.456 141.31 24.08 143.246 24.08C144.142 24.08 144.966 24.144 145.718 24.272C146.47 24.384 147.062 24.52 147.494 24.68V27.344C147.27 27.264 146.998 27.192 146.678 27.128C146.358 27.048 146.006 26.976 145.622 26.912C145.254 26.848 144.87 26.8 144.47 26.768C144.07 26.736 143.694 26.72 143.342 26.72C142.334 26.72 141.59 26.856 141.11 27.128C140.646 27.4 140.414 27.952 140.414 28.784C140.414 29.104 140.446 29.376 140.51 29.6C140.574 29.808 140.71 30 140.918 30.176C141.142 30.336 141.454 30.488 141.854 30.632C142.254 30.776 142.782 30.928 143.438 31.088C144.414 31.328 145.214 31.584 145.838 31.856C146.478 32.128 146.982 32.464 147.35 32.864C147.718 33.264 147.974 33.744 148.118 34.304C148.278 34.864 148.358 35.536 148.358 36.32C148.358 37.952 147.862 39.184 146.87 40.016C145.878 40.832 144.294 41.24 142.118 41.24Z" fill="#096DD9"/>
</svg>
