<svg width="138" height="38" viewBox="0 0 138 39" fill="none" xmlns="http://www.w3.org/2000/svg">
<path d="M2.46201 37.7457L13.8792 1L23.0438 29.2033L32.2084 1L43.0913 36.1185H137.052" stroke="#D63F97" stroke-width="5" stroke-linejoin="bevel"/>
<path d="M55.0997 10.0324C58.5137 10.0324 61.1004 11.0087 62.8599 12.9612C64.6457 14.9138 65.5386 17.6343 65.5386 21.1229C65.5386 21.7477 65.5255 22.2293 65.4992 22.5677H50.2939C50.6353 23.8955 51.2918 24.9368 52.2635 25.6918C53.2351 26.4208 54.4038 26.7852 55.7694 26.7852C56.7673 26.7852 57.7258 26.603 58.645 26.2385C59.5641 25.848 60.3914 25.2883 61.1267 24.5593L64.3174 27.7615C63.2407 28.9591 61.9277 29.8833 60.3782 30.5341C58.8551 31.1589 57.1481 31.4713 55.2573 31.4713C53.025 31.4713 51.0686 31.0288 49.3878 30.1436C47.7334 29.2585 46.4466 28.0088 45.5274 26.3947C44.6345 24.7806 44.1881 22.9192 44.1881 20.8105C44.1881 18.6757 44.6477 16.8012 45.5668 15.1871C46.486 13.547 47.7728 12.2844 49.4272 11.3992C51.0817 10.488 52.9725 10.0324 55.0997 10.0324ZM59.8267 19.0141C59.7742 17.6343 59.3278 16.5279 58.4874 15.6948C57.6471 14.8617 56.5309 14.4452 55.1391 14.4452C53.826 14.4452 52.723 14.8617 51.8302 15.6948C50.9635 16.5018 50.412 17.6083 50.1757 19.0141H59.8267ZM82.9507 30.0655C82.1629 30.5341 81.2828 30.8986 80.3111 31.1589C79.3657 31.3932 78.4072 31.5104 77.4355 31.5104C75.4659 31.5104 73.864 30.9507 72.6297 29.8312C71.3954 28.7117 70.7782 27.1107 70.7782 25.028V15.3043H67.8238V11.1649H70.7782V5.38538H76.8052V11.1649H82.5568V15.3433H76.8052V24.0126C76.8052 25.6267 77.4486 26.4338 78.7354 26.4338C79.6283 26.4338 80.6131 26.1734 81.6899 25.6528L82.9507 30.0655ZM92.9998 14.0156C93.7351 12.7139 94.6937 11.7246 95.8754 11.0477C97.0572 10.3709 98.4359 10.0194 100.012 9.99338V15.6557C99.8015 15.6297 99.4864 15.6167 99.0662 15.6167C97.2016 15.6167 95.7179 16.1244 94.6149 17.1397C93.5382 18.129 92.9998 19.4567 92.9998 21.1229V31.237H86.9334V10.2277H92.9998V14.0156ZM103.65 10.2277H109.716V31.237H103.65V10.2277ZM106.643 0.894531C107.615 0.894531 108.403 1.20694 109.007 1.83175C109.637 2.45656 109.952 3.26362 109.952 4.2529C109.952 5.24219 109.637 6.04924 109.007 6.67406C108.403 7.29887 107.615 7.61127 106.643 7.61127C105.698 7.61127 104.91 7.29887 104.28 6.67406C103.676 6.02321 103.374 5.21616 103.374 4.2529C103.374 3.26362 103.676 2.45656 104.28 1.83175C104.91 1.20694 105.698 0.894531 106.643 0.894531ZM129.967 31.237L124.846 22.6849L122.128 25.5356V31.237H116.061V2.26131H122.128V18.1941L129.888 10.2667H136.782L129.021 18.3503L137.136 31.237H129.967Z" fill="#298CE8"/>
<path d="M106.687 7.6443C108.727 7.6443 110.38 6.00521 110.38 3.98328C110.38 1.96136 108.727 0.322266 106.687 0.322266C104.647 0.322266 102.994 1.96136 102.994 3.98328C102.994 6.00521 104.647 7.6443 106.687 7.6443Z" fill="#D63F97"/>
</svg>
