<svg width="32" height="32" viewBox="0 0 32 32" fill="none" xmlns="http://www.w3.org/2000/svg">
	<path fill-rule="evenodd" clip-rule="evenodd" d="M30 8C30 10.2091 28.2091 12 26 12C25.7235 12 25.4536 11.972 25.1929 11.9185L20.4033 21.8971C20.7816 22.5081 21 23.2285 21 24C21 26.2091 19.2091 28 17 28C14.7909 28 13 26.2091 13 24C13 23.6166 13.0539 23.2458 13.1546 22.8948L5.05916 18.1817C4.52187 18.689 3.79725 19 3 19C1.34315 19 0 17.6569 0 16C0 14.3431 1.34315 13 3 13C4.65685 13 6 14.3431 6 16C6 16.3179 5.95057 16.6242 5.85897 16.9117L13.8342 21.5547C14.5658 20.609 15.7118 20 17 20C17.8565 20 18.65 20.2692 19.3008 20.7275L23.8047 11.3443C22.7176 10.6293 22 9.39844 22 8C22 5.79086 23.7909 4 26 4C28.2091 4 30 5.79086 30 8Z" fill="url(#paint0_linear)"/>
	<path fill-rule="evenodd" clip-rule="evenodd" d="M17 6C17 6.73984 16.7991 7.43276 16.449 8.02722L25.1444 15.9113C25.7662 15.3452 26.5928 15 27.5 15C29.433 15 31 16.567 31 18.5C31 20.433 29.433 22 27.5 22C25.567 22 24 20.433 24 18.5C24 18.0196 24.0968 17.5618 24.2719 17.145L15.4594 9.15478C14.781 9.68441 13.9274 10 13 10C12.7691 10 12.5427 9.98043 12.3225 9.94286L7.74615 23.4002C9.08035 24.0486 10 25.4169 10 27C10 29.2091 8.20914 31 6 31C3.79086 31 2 29.2091 2 27C2 24.7909 3.79086 23 6 23C6.09897 23 6.1971 23.0036 6.29427 23.0107L10.9174 9.41576C9.7675 8.71315 9 7.44621 9 6C9 3.79086 10.7909 2 13 2C15.2091 2 17 3.79086 17 6Z" fill="#096DD9"/>
	<defs>
		<linearGradient id="paint0_linear" x1="19" y1="9" x2="15" y2="28" gradientUnits="userSpaceOnUse">
			<stop stop-color="#C41D6D"/>
			<stop offset="1" stop-color="#9C213E"/>
		</linearGradient>
	</defs>
</svg>
